<svg width="127" height="38" viewBox="0 0 127 38" fill="none" xmlns="http://www.w3.org/2000/svg">
<g opacity="0.5">
<path d="M29.7332 7.26266C28.0731 5.25341 25.9374 4.82591 24.6865 4.76416H24.4724C24.1918 4.76416 23.9207 4.77366 23.6543 4.79266C23.6495 4.79266 23.6448 4.79266 23.64 4.79266C21.8088 4.93516 20.339 5.55741 19.2497 6.64991C17.2187 8.69716 17.1426 11.7799 17.1426 12.0364V17.8172C17.1426 4.75941 30.851 9.03916 30.851 9.03916C30.518 8.42166 30.1422 7.82791 29.7332 7.26266Z" fill="#EFEFEF"/>
<path d="M24.4725 2.84525H25.6522C23.017 1.04975 19.8301 0 16.3959 0C12.9617 0 9.77478 1.04975 7.13965 2.84525H8.31927C10.9544 2.84525 13.0711 3.63375 14.6074 5.18225C15.4589 6.03725 16.0201 7.0205 16.3959 7.961C16.7717 7.0205 17.3329 6.03725 18.1844 5.18225C19.7207 3.63375 21.8326 2.84525 24.4725 2.84525Z" fill="#EFEFEF"/>
<path d="M9.16113 4.79754C9.16113 4.79754 9.15162 4.79754 9.14686 4.79754C8.8805 4.77854 8.60937 4.76904 8.32873 4.76904H8.11469C6.85896 4.83079 4.72802 5.25829 3.06799 7.26754C2.65892 7.83279 2.28315 8.42654 1.9502 9.04404C1.9502 9.04404 15.6586 4.76904 15.6586 17.822V12.0413C15.6586 11.78 15.5825 8.69729 13.5514 6.65479C12.4669 5.56229 10.9924 4.94004 9.16113 4.79754Z" fill="#EFEFEF"/>
<path d="M32.8007 16.3352V26.9752C32.8007 29.4215 30.451 31.4022 27.5495 31.4022C24.0201 31.4022 20.9712 28.937 20.2434 25.498L18.807 18.7007C18.4502 17.0002 18.6928 15.219 19.5632 13.7132C19.9152 13.11 20.3814 12.5067 21.0045 11.97C22.4743 10.7112 24.5529 10.0747 27.1832 10.0747C27.1832 10.0747 31.8114 10.184 32.6533 14.3355C32.7199 14.782 32.7627 15.238 32.7817 15.694C32.7912 15.903 32.796 16.1167 32.796 16.3305L32.8007 16.3352Z" fill="#EFEFEF"/>
<path d="M0 16.3352V26.9752C0 29.4215 2.34974 31.4022 5.25124 31.4022C8.7806 31.4022 11.8296 28.937 12.5573 25.498L13.9938 18.7007C14.3505 17.0002 14.1079 15.219 13.2375 13.7132C12.8855 13.11 12.4194 12.5067 11.7963 11.97C10.3265 10.7112 8.24787 10.0747 5.61749 10.0747C5.61749 10.0747 0.989363 10.184 0.147453 14.3355C0.0808614 14.782 0.0380524 15.238 0.0190262 15.694C0.00475655 15.9077 0 16.1215 0 16.3352Z" fill="#EFEFEF"/>
<path d="M16.4005 23.7358C16.2293 28.1913 12.3574 30.1341 12.3574 33.6633C12.3574 35.8246 14.2505 37.7721 16.4005 37.7721C18.5505 37.7721 20.4436 35.8198 20.4436 33.6633C20.4436 30.1388 16.5765 28.1913 16.4005 23.7358Z" fill="#EFEFEF"/>
<path d="M45.9195 15.3381C46.5093 15.5043 47.1752 15.5851 47.8935 15.5851C50.1956 15.5851 51.1517 14.7823 51.1517 13.2718C51.1517 12.1746 50.6665 11.5666 49.5678 10.9301L47.8269 9.92308C47.2656 9.60008 47.1086 9.43383 47.1086 9.12033C47.1086 8.65483 47.4606 8.51233 48.3501 8.51233C48.9922 8.51233 49.525 8.57883 49.9864 8.72133C50.6 8.88758 50.7569 8.75933 50.7569 8.13708V8.00883C50.7569 7.42933 50.6142 7.27258 49.9864 7.10158C49.4869 6.95908 48.9399 6.89258 48.3501 6.89258C46.2192 6.89258 45.3012 7.61458 45.3012 9.06333C45.3012 10.0086 45.7483 10.7306 46.6235 11.2341L48.2978 12.2031C49.1349 12.6828 49.3442 12.8871 49.3442 13.2623C49.3442 13.7801 48.9637 13.9606 47.9173 13.9606C47.2513 13.9606 46.5949 13.8703 45.929 13.6993C45.3392 13.5426 45.168 13.6993 45.168 14.3073V14.4356C45.168 15.0151 45.2964 15.1576 45.9147 15.3286L45.9195 15.3381Z" fill="#EFEFEF"/>
<path d="M54.7907 15.585C56.7647 15.585 57.6304 14.901 57.6304 13.5045V11.0345C57.6304 9.42902 56.5173 8.81152 54.4625 8.81152C54.082 8.81152 53.73 8.83527 53.4018 8.87802C52.8405 8.96827 52.6931 9.11077 52.6931 9.66652V9.71877C52.6931 10.2888 52.85 10.417 53.4256 10.3268C53.8156 10.2745 54.1961 10.2508 54.5624 10.2508C55.4661 10.2508 55.9228 10.417 55.9228 11.0393V11.5333H54.6004C52.8358 11.5333 51.9463 12.203 51.9463 13.552C51.9463 14.901 52.812 15.5945 54.786 15.5945L54.7907 15.585ZM54.5814 12.792H55.9275V13.4143C55.8609 14.1125 55.4328 14.1885 54.7622 14.179C54.12 14.1933 53.7015 14.1268 53.6491 13.5045C53.6491 13.0248 53.9631 12.792 54.5767 12.792H54.5814Z" fill="#EFEFEF"/>
<path d="M59.6417 15.4281H59.889C60.4788 15.4281 60.6215 15.2856 60.6215 14.7061V11.9654C60.6215 10.7874 61.159 10.3979 62.0342 10.3979C62.7667 10.3979 63.133 10.6449 63.133 11.3289V14.7061C63.133 15.2856 63.2757 15.4281 63.8655 15.4281H64.1129C64.7027 15.4281 64.8454 15.2856 64.8454 14.7061V11.0344C64.8454 10.2459 64.6218 9.67589 64.1937 9.32914C63.7609 8.97764 63.2376 8.81139 62.624 8.81139C61.7488 8.81139 61.0782 9.05839 60.6215 9.54764V7.10139C60.6215 6.52189 60.4788 6.37939 59.889 6.37939H59.6417C59.0519 6.37939 58.9092 6.52189 58.9092 7.10139V14.7061C58.9092 15.2856 59.0519 15.4281 59.6417 15.4281Z" fill="#EFEFEF"/>
<path d="M66.8671 15.4281H67.1145C67.7043 15.4281 67.847 15.2856 67.847 14.7061V11.4191C67.847 10.6971 68.0801 10.3979 68.9315 10.3979C69.7829 10.3979 70.016 10.6971 70.016 11.4191V14.7061C70.016 15.2856 70.1587 15.4281 70.7485 15.4281H70.9435C71.5333 15.4281 71.676 15.2856 71.676 14.7061V11.4191C71.676 10.6971 71.8996 10.3979 72.7891 10.3979C73.6785 10.3979 73.8498 10.6971 73.8498 11.4191V14.7061C73.8498 15.2856 73.9925 15.4281 74.5823 15.4281H74.8296C75.4194 15.4281 75.5621 15.2856 75.5621 14.7061V11.4191C75.5621 9.66164 74.6869 8.80664 72.7891 8.80664C71.9139 8.80664 71.2717 9.07739 70.8674 9.63314C70.4869 9.07739 69.8352 8.80664 68.9315 8.80664C67.1002 8.80664 66.1299 9.72339 66.1299 11.4191V14.7061C66.1299 15.2856 66.2726 15.4281 66.8624 15.4281H66.8671Z" fill="#EFEFEF"/>
<path d="M86.4264 7.0254H86.2456C85.632 7.0254 85.4846 7.19165 85.4846 7.7759V13.7752C85.4846 14.0744 85.4465 14.1362 85.2896 14.1362C85.1707 14.1362 85.0946 14.0459 85.0565 13.8654L83.6961 8.44565C83.3965 7.2439 82.9493 6.86865 81.8649 6.86865C80.5711 6.86865 80.0479 7.37215 80.0479 8.8589V14.6777C80.0479 15.2619 80.1905 15.4282 80.8089 15.4282H80.9896C81.6032 15.4282 81.7507 15.2619 81.7507 14.6777V8.70215C81.7507 8.37915 81.7792 8.31265 81.9362 8.31265C82.0932 8.31265 82.1312 8.37915 82.1978 8.67365L83.5296 13.9509C83.8436 15.1812 84.3002 15.5802 85.4418 15.5802C86.6832 15.5802 87.197 15.0767 87.197 13.5899V7.77115C87.197 7.1869 87.0543 7.02065 86.4359 7.02065L86.4264 7.0254Z" fill="#EFEFEF"/>
<path d="M94.0845 13.5045V11.0345C94.0845 9.42902 92.9714 8.81152 90.9166 8.81152C90.5361 8.81152 90.1841 8.83527 89.8559 8.87802C89.2946 8.96827 89.1472 9.11077 89.1472 9.66652V9.71877C89.1472 10.2888 89.3041 10.417 89.8797 10.3268C90.2697 10.2745 90.6502 10.2508 91.0165 10.2508C91.9202 10.2508 92.3769 10.417 92.3769 11.0393V11.5333H91.0545C89.2899 11.5333 88.4004 12.203 88.4004 13.552C88.4004 14.901 89.2661 15.5945 91.2401 15.5945C93.214 15.5945 94.0797 14.9105 94.0797 13.514L94.0845 13.5045ZM90.108 13.5045C90.108 13.0248 90.4219 12.792 91.0355 12.792H92.3816V13.4143C92.315 14.1125 91.8869 14.1885 91.2163 14.179C90.5741 14.1933 90.1556 14.1268 90.1032 13.5045H90.108Z" fill="#EFEFEF"/>
<path d="M96.0968 15.4281H96.3298C96.9196 15.4281 97.0623 15.2856 97.0623 14.7061V7.10139C97.0623 6.52189 96.9196 6.37939 96.3298 6.37939H96.0968C95.507 6.37939 95.3643 6.52189 95.3643 7.10139V14.7061C95.3643 15.2856 95.507 15.4281 96.0968 15.4281Z" fill="#EFEFEF"/>
<path d="M99.3401 14.863C99.7063 15.3143 99.9441 15.433 100.529 15.433H101.186C101.775 15.433 101.828 15.319 101.461 14.863L99.459 12.431C99.302 12.2505 99.2259 12.108 99.2259 12.0178C99.2259 11.9133 99.302 11.7708 99.4732 11.5903L101.186 9.52401C101.552 9.07276 101.514 8.96826 100.924 8.96826H100.268C99.6778 8.96826 99.4447 9.07276 99.0785 9.52401L98.0177 10.816C97.6372 11.2815 97.5088 11.538 97.5088 11.9655C97.5088 12.393 97.68 12.8205 98.0177 13.2338L99.3401 14.863Z" fill="#EFEFEF"/>
<path d="M103.426 15.4281H103.673C104.263 15.4281 104.406 15.2856 104.406 14.7061V11.9654C104.406 10.7874 104.943 10.3979 105.818 10.3979C106.551 10.3979 106.917 10.6449 106.917 11.3289V14.7061C106.917 15.2856 107.06 15.4281 107.65 15.4281H107.897C108.487 15.4281 108.63 15.2856 108.63 14.7061V11.0344C108.63 10.2459 108.406 9.67589 107.978 9.32914C107.545 8.97764 107.022 8.81139 106.408 8.81139C105.533 8.81139 104.862 9.05839 104.406 9.54764V7.10139C104.406 6.52189 104.263 6.37939 103.673 6.37939H103.426C102.836 6.37939 102.693 6.52189 102.693 7.10139V14.7061C102.693 15.2856 102.836 15.4281 103.426 15.4281Z" fill="#EFEFEF"/>
<path d="M113.201 15.5849C113.843 15.5849 114.367 15.5326 114.795 15.4186C115.37 15.2761 115.489 15.1479 115.489 14.5779V14.4354C115.489 13.8274 115.361 13.6991 114.795 13.8131C114.219 13.9271 113.696 13.9936 113.211 13.9936C112.007 13.9936 111.498 13.6849 111.498 13.0104V12.8156H114.823C115.437 12.8156 115.608 12.6874 115.675 12.1031C115.689 11.9464 115.699 11.7801 115.699 11.5996C115.699 9.73764 114.742 8.80664 112.835 8.80664C110.809 8.80664 109.786 9.77564 109.786 11.7136V12.7491C109.786 14.7299 110.856 15.5801 113.201 15.5801V15.5849ZM111.498 11.2529C111.498 10.5926 111.931 10.2696 112.783 10.2696C113.634 10.2696 114.077 10.5926 114.077 11.2529V11.4476H111.498V11.2529Z" fill="#EFEFEF"/>
<path d="M120.136 15.5849C120.778 15.5849 121.301 15.5326 121.729 15.4186C122.305 15.2761 122.424 15.1479 122.424 14.5779V14.4354C122.424 13.8274 122.295 13.6991 121.729 13.8131C121.154 13.9271 120.631 13.9936 120.145 13.9936C118.942 13.9936 118.433 13.6849 118.433 13.0104V12.8156H121.758C122.371 12.8156 122.543 12.6874 122.609 12.1031C122.624 11.9464 122.633 11.7801 122.633 11.5996C122.633 9.73764 121.677 8.80664 119.77 8.80664C117.743 8.80664 116.721 9.77564 116.721 11.7136V12.7491C116.721 14.7299 117.791 15.5801 120.136 15.5801V15.5849ZM118.433 11.2529C118.433 10.5926 118.866 10.2696 119.717 10.2696C120.569 10.2696 121.011 10.5926 121.011 11.2529V11.4476H118.433V11.2529Z" fill="#EFEFEF"/>
<path d="M125.734 15.5611C125.906 15.5611 126.034 15.5469 126.129 15.5374C126.481 15.4709 126.572 15.3284 126.572 14.8106V14.5636C126.572 14.0601 126.481 13.9699 126.129 13.9699H126.063C125.658 13.9699 125.487 13.7609 125.487 13.1006V7.10139C125.487 6.52189 125.344 6.37939 124.755 6.37939H124.522C123.932 6.37939 123.789 6.52189 123.789 7.10139V13.4759C123.789 14.8866 124.545 15.5564 125.739 15.5564L125.734 15.5611Z" fill="#EFEFEF"/>
<path d="M70.5054 29.9395H68.9072V31.2742H70.5054V29.9395Z" fill="#EFEFEF"/>
<path d="M68.1802 29.9395H66.582V31.2742H68.1802V29.9395Z" fill="#EFEFEF"/>
<path d="M76.9983 21.5938H75.3906V22.938H76.9983V21.5938Z" fill="#EFEFEF"/>
<path d="M83.6575 27.0374C83.6575 27.4886 83.4007 27.7356 82.9773 27.7356H79.9141C79.9141 25.5174 78.0924 23.8121 75.9567 23.8121C74.5487 23.8121 72.9981 24.6006 72.96 26.3866H74.4536C74.525 25.5269 75.1718 25.2039 75.9567 25.2039C77.4264 25.2039 78.3302 26.2964 78.3159 27.7356H71.6234C70.9195 27.7356 70.4961 27.2939 70.4961 26.6099V24.4724H68.9122V26.8046C68.9122 27.4649 68.584 27.7309 67.9704 27.7309H53.9386C53.2346 27.7309 52.8113 27.2891 52.8113 26.6051V21.7554H51.2369V27.3271C51.2369 28.7664 50.1666 29.7069 48.9585 29.7069C47.8217 29.7069 46.7276 28.6144 46.7276 27.3651C46.7276 26.2964 47.0796 25.5886 47.0796 25.5886H45.4339C45.2341 26.2014 45.1865 26.5956 45.1865 27.3651C45.1865 29.5691 46.8894 31.2744 48.9537 31.2744C50.6566 31.2744 52.0788 30.3244 52.5925 28.7569C52.9112 29.0466 53.3678 29.2794 54.0242 29.2794H68.4128C69.1405 29.2794 69.7494 28.9564 70.0348 28.4671C70.3392 28.8851 70.8576 29.2794 71.7138 29.2794H83.1153C85.0893 29.2794 85.2415 27.6074 85.2415 26.9471V24.1161H83.6575V27.0421V27.0374Z" fill="#EFEFEF"/>
<path d="M84.9185 21.7598H83.3203V23.104H84.9185V21.7598Z" fill="#EFEFEF"/>
<path d="M125.001 24.1254V27.2699C124.987 27.8256 124.825 28.4051 124.05 28.4051C123.555 28.4051 123.123 27.9634 123.099 27.1986V24.4721H121.524V27.2699C121.51 27.8256 121.348 28.4051 120.573 28.4051C120.078 28.4051 119.646 27.9634 119.622 27.1986V24.4721H118.038V27.0371C118.038 27.4884 117.781 27.7354 117.358 27.7354H113.738C113.928 27.5501 114.009 27.3269 114.009 26.6666V25.1134C114.009 24.0589 113.167 23.2181 112.011 23.2134C110.855 23.2181 110.052 24.0066 110.052 25.1134V27.7354H99.045C98.4123 27.7354 98.2459 27.1321 98.2459 26.4814C98.2459 25.1466 97.285 23.7216 95.4633 23.7216C94.1933 23.7216 93.3371 24.4294 92.9375 25.2986C92.8091 25.4981 92.6189 25.6026 92.362 25.6026H91.092C89.118 25.6026 88.9658 27.2604 88.9658 27.9254V31.2789H90.5498V27.8446C90.5498 27.4029 90.8066 27.1464 91.2299 27.1464H92.1575C92.4048 27.1464 92.5665 27.1131 92.733 27.0324C92.9566 28.2294 93.8936 29.4121 95.4585 29.4121C96.329 29.4121 96.9854 29.0416 97.4658 28.5286C97.8178 28.9466 98.3695 29.2839 99.1211 29.2839H110.042C110.242 30.2481 110.936 31.3976 112.592 31.3976C113.776 31.3976 114.694 30.7801 114.694 29.9109C114.694 29.7114 114.646 29.5166 114.447 29.2839H117.491C118.475 29.2839 119.008 28.8659 119.289 28.3671C119.784 29.3314 120.449 29.5166 121.249 29.5166C121.848 29.5166 122.718 29.0986 122.942 28.5286C123.437 29.2031 123.926 29.5166 124.726 29.5166C126.134 29.5166 126.571 28.4241 126.571 27.2794V24.1349H124.997L125.001 24.1254ZM95.4633 28.0726C94.6071 28.0726 94.3217 27.4124 94.3217 26.4814C94.3217 25.6596 94.6023 24.9851 95.4633 24.9851C96.3242 24.9851 96.6144 25.6596 96.6144 26.4814C96.6144 27.4076 96.3337 28.0726 95.4633 28.0726ZM111.578 25.1846C111.578 24.9851 111.745 24.7571 112.011 24.7571C112.306 24.7571 112.482 24.9899 112.482 25.1846V27.0276C112.482 27.4219 112.073 27.8494 111.754 27.8494H111.578V25.1799V25.1846ZM112.672 30.2196C111.778 30.2196 111.545 29.3124 111.521 29.1984H112.53C112.891 29.2221 113.224 29.3504 113.224 29.6164C113.224 29.8349 112.953 30.2196 112.672 30.2196Z" fill="#EFEFEF"/>
</g>
</svg>
