<svg width="251" height="75" viewBox="0 0 251 75" fill="none" xmlns="http://www.w3.org/2000/svg">
<path d="M59.0298 14.3346C55.762 10.3689 51.5579 9.5252 49.0953 9.40332H48.674C48.1215 9.40332 47.5878 9.42207 47.0635 9.45957C47.0541 9.45957 47.0447 9.45957 47.0354 9.45957C43.4305 9.74082 40.5373 10.9689 38.3931 13.1252C34.3949 17.1658 34.2451 23.2502 34.2451 23.7564V35.1658C34.2451 9.39395 61.2301 17.8408 61.2301 17.8408C60.5747 16.6221 59.835 15.4502 59.0298 14.3346Z" fill="#4F9D5D"/>
<path d="M48.6745 5.61562H50.9966C45.8094 2.07187 39.536 0 32.7757 0C26.0154 0 19.742 2.07187 14.5547 5.61562H16.8768C22.0641 5.61562 26.2307 7.17187 29.2551 10.2281C30.9311 11.9156 32.036 13.8562 32.7757 15.7125C33.5154 13.8562 34.6202 11.9156 36.2963 10.2281C39.3206 7.17187 43.4779 5.61562 48.6745 5.61562Z" fill="#7FCE7A"/>
<path d="M18.5336 9.46885C18.5336 9.46885 18.5149 9.46885 18.5055 9.46885C17.9812 9.43135 17.4475 9.4126 16.895 9.4126H16.4737C14.0018 9.53447 9.80703 10.3782 6.53924 14.3438C5.734 15.4595 4.9943 16.6313 4.33887 17.8501C4.33887 17.8501 31.3239 9.4126 31.3239 35.1751V23.7657C31.3239 23.2501 31.1741 17.1657 27.1759 13.1345C25.0411 10.9782 22.1385 9.7501 18.5336 9.46885Z" fill="#4F9D5D"/>
<path d="M65.0688 32.2405V53.2405C65.0688 58.0687 60.4433 61.978 54.7317 61.978C47.7842 61.978 41.7823 57.1124 40.3497 50.3249L37.522 36.9093C36.8198 33.553 37.2973 30.0374 39.0108 27.0655C39.7036 25.8749 40.6212 24.6843 41.8478 23.6249C44.7411 21.1405 48.8329 19.8843 54.0108 19.8843C54.0108 19.8843 63.1213 20.0999 64.7786 28.2937C64.9096 29.1749 64.9939 30.0749 65.0314 30.9749C65.0501 31.3874 65.0594 31.8093 65.0594 32.2312L65.0688 32.2405Z" fill="#137054"/>
<path d="M0.5 32.2405V53.2405C0.5 58.0687 5.12547 61.978 10.8371 61.978C17.7846 61.978 23.7865 57.1124 25.2191 50.3249L28.0468 36.9093C28.7491 33.553 28.2715 30.0374 26.5581 27.0655C25.8652 25.8749 24.9476 24.6843 23.721 23.6249C20.8277 21.1405 16.736 19.8843 11.5581 19.8843C11.5581 19.8843 2.44757 20.0999 0.790262 28.2937C0.659176 29.1749 0.574906 30.0749 0.537453 30.9749C0.509363 31.3968 0.5 31.8187 0.5 32.2405Z" fill="#137054"/>
<path d="M32.785 46.8467C32.4479 55.6404 24.8262 59.4748 24.8262 66.4404C24.8262 70.7061 28.5528 74.5498 32.785 74.5498C37.0172 74.5498 40.7438 70.6967 40.7438 66.4404C40.7438 59.4842 33.1314 55.6404 32.785 46.8467Z" fill="#4F9D5D"/>
<path d="M90.8935 30.2723C92.0545 30.6004 93.3654 30.7598 94.7792 30.7598C99.3111 30.7598 101.193 29.1754 101.193 26.1941C101.193 24.0285 100.238 22.8285 98.0751 21.5723L94.6481 19.5848C93.5433 18.9473 93.2343 18.6191 93.2343 18.0004C93.2343 17.0816 93.9272 16.8004 95.6781 16.8004C96.9422 16.8004 97.9908 16.9316 98.8991 17.2129C100.107 17.541 100.416 17.2879 100.416 16.0598V15.8066C100.416 14.6629 100.135 14.3535 98.8991 14.016C97.9159 13.7348 96.8392 13.6035 95.6781 13.6035C91.4834 13.6035 89.6762 15.0285 89.6762 17.8879C89.6762 19.7535 90.5564 21.1785 92.2792 22.1723L95.5751 24.0848C97.2231 25.0316 97.635 25.4348 97.635 26.1754C97.635 27.1973 96.886 27.5535 94.826 27.5535C93.5152 27.5535 92.2231 27.3754 90.9122 27.0379C89.7511 26.7285 89.4141 27.0379 89.4141 28.2379V28.491C89.4141 29.6348 89.6669 29.916 90.8841 30.2535L90.8935 30.2723Z" fill="#7FCE7A"/>
<path d="M108.356 30.7594C112.242 30.7594 113.946 29.4094 113.946 26.6531V21.7781C113.946 18.6094 111.755 17.3906 107.71 17.3906C106.961 17.3906 106.268 17.4375 105.622 17.5219C104.517 17.7 104.227 17.9813 104.227 19.0781V19.1812C104.227 20.3062 104.536 20.5594 105.669 20.3813C106.437 20.2781 107.186 20.2313 107.907 20.2313C109.686 20.2313 110.585 20.5594 110.585 21.7875V22.7625H107.982C104.508 22.7625 102.757 24.0844 102.757 26.7469C102.757 29.4094 104.461 30.7781 108.347 30.7781L108.356 30.7594ZM107.944 25.2469H110.594V26.475C110.463 27.8531 109.62 28.0031 108.3 27.9844C107.036 28.0125 106.212 27.8813 106.109 26.6531C106.109 25.7063 106.727 25.2469 107.935 25.2469H107.944Z" fill="#7FCE7A"/>
<path d="M117.907 30.4502H118.394C119.555 30.4502 119.836 30.1689 119.836 29.0252V23.6158C119.836 21.2908 120.894 20.5221 122.617 20.5221C124.058 20.5221 124.779 21.0096 124.779 22.3596V29.0252C124.779 30.1689 125.06 30.4502 126.221 30.4502H126.708C127.869 30.4502 128.15 30.1689 128.15 29.0252V21.7783C128.15 20.2221 127.71 19.0971 126.867 18.4127C126.015 17.7189 124.985 17.3908 123.778 17.3908C122.055 17.3908 120.735 17.8783 119.836 18.8439V14.0158C119.836 12.8721 119.555 12.5908 118.394 12.5908H117.907C116.746 12.5908 116.465 12.8721 116.465 14.0158V29.0252C116.465 30.1689 116.746 30.4502 117.907 30.4502Z" fill="#7FCE7A"/>
<path d="M132.129 30.4501H132.616C133.777 30.4501 134.058 30.1688 134.058 29.0251V22.5376C134.058 21.1126 134.517 20.522 136.193 20.522C137.869 20.522 138.328 21.1126 138.328 22.5376V29.0251C138.328 30.1688 138.608 30.4501 139.769 30.4501H140.153C141.314 30.4501 141.595 30.1688 141.595 29.0251V22.5376C141.595 21.1126 142.035 20.522 143.786 20.522C145.537 20.522 145.874 21.1126 145.874 22.5376V29.0251C145.874 30.1688 146.155 30.4501 147.316 30.4501H147.803C148.964 30.4501 149.245 30.1688 149.245 29.0251V22.5376C149.245 19.0688 147.522 17.3813 143.786 17.3813C142.064 17.3813 140.799 17.9157 140.004 19.0126C139.255 17.9157 137.972 17.3813 136.193 17.3813C132.588 17.3813 130.678 19.1907 130.678 22.5376V29.0251C130.678 30.1688 130.959 30.4501 132.12 30.4501H132.129Z" fill="#7FCE7A"/>
<path d="M170.631 13.866H170.276C169.068 13.866 168.777 14.1941 168.777 15.3473V27.1879C168.777 27.7785 168.703 27.9004 168.394 27.9004C168.159 27.9004 168.01 27.7223 167.935 27.366L165.257 16.6691C164.667 14.2973 163.787 13.5566 161.652 13.5566C159.105 13.5566 158.075 14.5504 158.075 17.4848V28.9691C158.075 30.1223 158.356 30.4504 159.573 30.4504H159.929C161.137 30.4504 161.427 30.1223 161.427 28.9691V17.1754C161.427 16.5379 161.483 16.4066 161.792 16.4066C162.101 16.4066 162.176 16.5379 162.307 17.1191L164.929 27.5348C165.547 29.9629 166.446 30.7504 168.693 30.7504C171.137 30.7504 172.148 29.7566 172.148 26.8223V15.3379C172.148 14.1848 171.867 13.8566 170.65 13.8566L170.631 13.866Z" fill="#7FCE7A"/>
<path d="M185.706 26.6531V21.7781C185.706 18.6094 183.515 17.3906 179.47 17.3906C178.721 17.3906 178.028 17.4375 177.382 17.5219C176.277 17.7 175.987 17.9813 175.987 19.0781V19.1812C175.987 20.3062 176.296 20.5594 177.429 20.3813C178.196 20.2781 178.945 20.2313 179.666 20.2313C181.445 20.2313 182.344 20.5594 182.344 21.7875V22.7625H179.741C176.268 22.7625 174.517 24.0844 174.517 26.7469C174.517 29.4094 176.221 30.7781 180.106 30.7781C183.992 30.7781 185.696 29.4281 185.696 26.6719L185.706 26.6531ZM177.878 26.6531C177.878 25.7063 178.496 25.2469 179.704 25.2469H182.354V26.475C182.223 27.8531 181.38 28.0031 180.06 27.9844C178.796 28.0125 177.972 27.8813 177.869 26.6531H177.878Z" fill="#7FCE7A"/>
<path d="M189.667 30.4502H190.125C191.286 30.4502 191.567 30.1689 191.567 29.0252V14.0158C191.567 12.8721 191.286 12.5908 190.125 12.5908H189.667C188.506 12.5908 188.225 12.8721 188.225 14.0158V29.0252C188.225 30.1689 188.506 30.4502 189.667 30.4502Z" fill="#7FCE7A"/>
<path d="M196.053 29.3346C196.774 30.2252 197.242 30.4596 198.394 30.4596H199.686C200.847 30.4596 200.95 30.2346 200.229 29.3346L196.287 24.5346C195.978 24.1783 195.828 23.8971 195.828 23.7189C195.828 23.5127 195.978 23.2314 196.315 22.8752L199.686 18.7971C200.407 17.9064 200.332 17.7002 199.171 17.7002H197.879C196.718 17.7002 196.259 17.9064 195.538 18.7971L193.45 21.3471C192.701 22.2658 192.448 22.7721 192.448 23.6158C192.448 24.4596 192.785 25.3033 193.45 26.1189L196.053 29.3346Z" fill="#7FCE7A"/>
<path d="M204.095 30.4502H204.582C205.743 30.4502 206.024 30.1689 206.024 29.0252V23.6158C206.024 21.2908 207.082 20.5221 208.805 20.5221C210.247 20.5221 210.968 21.0096 210.968 22.3596V29.0252C210.968 30.1689 211.249 30.4502 212.41 30.4502H212.897C214.058 30.4502 214.339 30.1689 214.339 29.0252V21.7783C214.339 20.2221 213.899 19.0971 213.056 18.4127C212.204 17.7189 211.174 17.3908 209.966 17.3908C208.243 17.3908 206.923 17.8783 206.024 18.8439V14.0158C206.024 12.8721 205.743 12.5908 204.582 12.5908H204.095C202.934 12.5908 202.653 12.8721 202.653 14.0158V29.0252C202.653 30.1689 202.934 30.4502 204.095 30.4502Z" fill="#7FCE7A"/>
<path d="M223.337 30.7595C224.601 30.7595 225.631 30.6563 226.474 30.4313C227.607 30.1501 227.841 29.897 227.841 28.772V28.4907C227.841 27.2907 227.588 27.0376 226.474 27.2626C225.341 27.4876 224.311 27.6188 223.356 27.6188C220.987 27.6188 219.985 27.0095 219.985 25.6782V25.2938H226.53C227.738 25.2938 228.075 25.0407 228.206 23.8876C228.234 23.5782 228.253 23.2501 228.253 22.8938C228.253 19.2188 226.371 17.3813 222.616 17.3813C218.627 17.3813 216.614 19.2938 216.614 23.1188V25.1626C216.614 29.072 218.721 30.7501 223.337 30.7501V30.7595ZM219.985 22.2095C219.985 20.9063 220.837 20.2688 222.513 20.2688C224.189 20.2688 225.06 20.9063 225.06 22.2095V22.5938H219.985V22.2095Z" fill="#7FCE7A"/>
<path d="M236.988 30.7595C238.253 30.7595 239.282 30.6563 240.125 30.4313C241.258 30.1501 241.492 29.897 241.492 28.772V28.4907C241.492 27.2907 241.239 27.0376 240.125 27.2626C238.992 27.4876 237.962 27.6188 237.007 27.6188C234.638 27.6188 233.636 27.0095 233.636 25.6782V25.2938H240.181C241.389 25.2938 241.726 25.0407 241.857 23.8876C241.885 23.5782 241.904 23.2501 241.904 22.8938C241.904 19.2188 240.022 17.3813 236.268 17.3813C232.279 17.3813 230.266 19.2938 230.266 23.1188V25.1626C230.266 29.072 232.372 30.7501 236.988 30.7501V30.7595ZM233.636 22.2095C233.636 20.9063 234.488 20.2688 236.165 20.2688C237.841 20.2688 238.711 20.9063 238.711 22.2095V22.5938H233.636V22.2095Z" fill="#7FCE7A"/>
<path d="M248.009 30.7127C248.346 30.7127 248.599 30.6846 248.786 30.6658C249.479 30.5346 249.657 30.2533 249.657 29.2314V28.7439C249.657 27.7502 249.479 27.5721 248.786 27.5721H248.655C247.859 27.5721 247.522 27.1596 247.522 25.8564V14.0158C247.522 12.8721 247.241 12.5908 246.08 12.5908H245.622C244.461 12.5908 244.18 12.8721 244.18 14.0158V26.5971C244.18 29.3814 245.668 30.7033 248.019 30.7033L248.009 30.7127Z" fill="#7FCE7A"/>
<path d="M139.293 59.0908H136.146V61.7252H139.293V59.0908Z" fill="#137054"/>
<path d="M134.713 59.0908H131.567V61.7252H134.713V59.0908Z" fill="#137054"/>
<path d="M152.073 42.6191H148.908V45.2723H152.073V42.6191Z" fill="#137054"/>
<path d="M165.182 53.363C165.182 54.2536 164.676 54.7411 163.843 54.7411H157.813C157.813 50.363 154.226 46.9974 150.022 46.9974C147.251 46.9974 144.198 48.5536 144.123 52.0786H147.064C147.204 50.3817 148.477 49.7442 150.022 49.7442C152.916 49.7442 154.695 51.9005 154.667 54.7411H141.492C140.107 54.7411 139.273 53.8692 139.273 52.5192V48.3005H136.155V52.9036C136.155 54.2067 135.509 54.7317 134.301 54.7317H106.68C105.294 54.7317 104.461 53.8599 104.461 52.5099V42.938H101.361V53.9349C101.361 56.7755 99.2545 58.6317 96.8763 58.6317C94.6384 58.6317 92.4849 56.4755 92.4849 54.0099C92.4849 51.9005 93.1778 50.5036 93.1778 50.5036H89.9381C89.5448 51.713 89.4512 52.4911 89.4512 54.0099C89.4512 58.3599 92.8032 61.7255 96.8669 61.7255C100.219 61.7255 103.019 59.8505 104.03 56.7567C104.657 57.3286 105.556 57.788 106.848 57.788H135.172C136.605 57.788 137.803 57.1505 138.365 56.1849C138.964 57.0099 139.985 57.788 141.67 57.788H164.114C168 57.788 168.299 54.488 168.299 53.1849V47.5974H165.182V53.3724V53.363Z" fill="#137054"/>
<path d="M167.663 42.9473H164.517V45.6004H167.663V42.9473Z" fill="#137054"/>
<path d="M246.567 47.6159V53.8222C246.539 54.919 246.221 56.0628 244.695 56.0628C243.721 56.0628 242.869 55.1909 242.822 53.6815V48.3003H239.723V53.8222C239.695 54.919 239.376 56.0628 237.85 56.0628C236.876 56.0628 236.024 55.1909 235.977 53.6815V48.3003H232.859V53.3628C232.859 54.2534 232.354 54.7409 231.52 54.7409H224.395C224.769 54.3753 224.929 53.9347 224.929 52.6315V49.5659C224.929 47.4847 223.271 45.8253 220.996 45.8159C218.721 45.8253 217.138 47.3815 217.138 49.5659V54.7409H195.472C194.226 54.7409 193.899 53.5503 193.899 52.2659C193.899 49.6315 192.007 46.819 188.421 46.819C185.921 46.819 184.236 48.2159 183.449 49.9315C183.196 50.3253 182.822 50.5315 182.316 50.5315H179.816C175.93 50.5315 175.631 53.8034 175.631 55.1159V61.7347H178.749V54.9565C178.749 54.0847 179.254 53.5784 180.088 53.5784H181.914C182.401 53.5784 182.719 53.5128 183.047 53.3534C183.487 55.7159 185.331 58.0503 188.412 58.0503C190.125 58.0503 191.417 57.319 192.363 56.3065C193.056 57.1315 194.142 57.7972 195.621 57.7972H217.12C217.513 59.7003 218.88 61.969 222.138 61.969C224.47 61.969 226.277 60.7503 226.277 59.0347C226.277 58.6409 226.183 58.2565 225.79 57.7972H231.783C233.721 57.7972 234.769 56.9722 235.322 55.9878C236.296 57.8909 237.607 58.2565 239.18 58.2565C240.359 58.2565 242.073 57.4315 242.513 56.3065C243.487 57.6378 244.451 58.2565 246.024 58.2565C248.796 58.2565 249.657 56.1003 249.657 53.8409V47.6347H246.558L246.567 47.6159ZM188.421 55.4065C186.736 55.4065 186.174 54.1034 186.174 52.2659C186.174 50.644 186.726 49.3128 188.421 49.3128C190.116 49.3128 190.687 50.644 190.687 52.2659C190.687 54.094 190.135 55.4065 188.421 55.4065ZM220.144 49.7065C220.144 49.3128 220.472 48.8628 220.996 48.8628C221.577 48.8628 221.923 49.3222 221.923 49.7065V53.344C221.923 54.1222 221.118 54.9659 220.49 54.9659H220.144V49.6972V49.7065ZM222.298 59.644C220.537 59.644 220.078 57.8534 220.032 57.6284H222.017C222.728 57.6753 223.384 57.9284 223.384 58.4534C223.384 58.8847 222.85 59.644 222.298 59.644Z" fill="#137054"/>
</svg>
