<svg width="167" height="50" viewBox="0 0 167 50" fill="none" xmlns="http://www.w3.org/2000/svg">
<path d="M39.0202 9.55624C36.8416 6.91249 34.0389 6.34999 32.3972 6.26874H32.1163C31.748 6.26874 31.3922 6.28124 31.0426 6.30624C31.0364 6.30624 31.0302 6.30624 31.0239 6.30624C28.6207 6.49374 26.6918 7.31249 25.2624 8.74999C22.5969 11.4437 22.4971 15.5 22.4971 15.8375V23.4437C22.4971 6.26249 40.4871 11.8937 40.4871 11.8937C40.0501 11.0812 39.557 10.3 39.0202 9.55624Z" fill="#EFFFEE"/>
<path d="M32.1157 3.74375H33.6638C30.2056 1.38125 26.0233 0 21.5165 0C17.0096 0 12.8273 1.38125 9.36914 3.74375H10.9172C14.3754 3.74375 17.1532 4.78125 19.1694 6.81875C20.2867 7.94375 21.0233 9.2375 21.5165 10.475C22.0096 9.2375 22.7462 7.94375 23.8635 6.81875C25.8797 4.78125 28.6513 3.74375 32.1157 3.74375Z" fill="#EFFFEE"/>
<path d="M12.0227 6.31249C12.0227 6.31249 12.0103 6.31249 12.004 6.31249C11.6545 6.28749 11.2986 6.27499 10.9304 6.27499H10.6495C9.00152 6.35624 6.20501 6.91874 4.02649 9.56249C3.48966 10.3062 2.99652 11.0875 2.55957 11.9C2.55957 11.9 20.5496 6.27499 20.5496 23.45V15.8437C20.5496 15.5 20.4497 11.4437 17.7843 8.75624C16.3611 7.31874 14.426 6.49999 12.0227 6.31249Z" fill="#EFFFEE"/>
<path d="M43.0462 21.4938V35.4938C43.0462 38.7125 39.9626 41.3188 36.1548 41.3188C31.5231 41.3188 27.5219 38.075 26.5668 33.55L24.6817 24.6063C24.2135 22.3688 24.5318 20.025 25.6742 18.0438C26.1361 17.25 26.7478 16.4563 27.5656 15.75C29.4944 14.0938 32.2222 13.2563 35.6742 13.2563C35.6742 13.2563 41.7478 13.4 42.8527 18.8625C42.9401 19.45 42.9963 20.05 43.0212 20.65C43.0337 20.925 43.04 21.2063 43.04 21.4875L43.0462 21.4938Z" fill="#EFFFEE"/>
<path d="M0 21.4938V35.4938C0 38.7125 3.08365 41.3188 6.89139 41.3188C11.5231 41.3188 15.5243 38.075 16.4794 33.55L18.3645 24.6063C18.8327 22.3688 18.5144 20.025 17.372 18.0438C16.9101 17.25 16.2984 16.4563 15.4806 15.75C13.5518 14.0938 10.824 13.2563 7.37203 13.2563C7.37203 13.2563 1.29838 13.4 0.193508 18.8625C0.106117 19.45 0.0499376 20.05 0.0249688 20.65C0.0062422 20.9313 0 21.2125 0 21.4938Z" fill="#EFFFEE"/>
<path d="M21.5227 31.2313C21.2979 37.0938 16.2168 39.65 16.2168 44.2938C16.2168 47.1375 18.7012 49.7 21.5227 49.7C24.3441 49.7 26.8285 47.1313 26.8285 44.2938C26.8285 39.6563 21.7536 37.0938 21.5227 31.2313Z" fill="#EFFFEE"/>
<path d="M60.2626 20.1812C61.0367 20.4 61.9106 20.5062 62.8531 20.5062C65.8744 20.5062 67.1291 19.45 67.1291 17.4625C67.1291 16.0187 66.4923 15.2187 65.0504 14.3812L62.7658 13.0562C62.0292 12.6312 61.8232 12.4125 61.8232 12C61.8232 11.3875 62.2851 11.2 63.4524 11.2C64.2951 11.2 64.9942 11.2875 65.5997 11.475C66.405 11.6937 66.6109 11.525 66.6109 10.7062V10.5375C66.6109 9.77498 66.4237 9.56873 65.5997 9.34373C64.9443 9.15623 64.2264 9.06873 63.4524 9.06873C60.6559 9.06873 59.4511 10.0187 59.4511 11.925C59.4511 13.1687 60.0379 14.1187 61.1865 14.7812L63.3837 16.0562C64.4824 16.6875 64.757 16.9562 64.757 17.45C64.757 18.1312 64.2576 18.3687 62.8844 18.3687C62.0104 18.3687 61.149 18.25 60.2751 18.025C59.5011 17.8187 59.2764 18.025 59.2764 18.825V18.9937C59.2764 19.7562 59.4449 19.9437 60.2564 20.1687L60.2626 20.1812Z" fill="#EFFFEE"/>
<path d="M71.9047 20.5063C74.4952 20.5063 75.6313 19.6063 75.6313 17.7688V14.5188C75.6313 12.4063 74.1706 11.5938 71.474 11.5938C70.9746 11.5938 70.5127 11.625 70.082 11.6813C69.3454 11.8 69.1519 11.9875 69.1519 12.7188V12.7875C69.1519 13.5375 69.3579 13.7063 70.1132 13.5875C70.6251 13.5188 71.1244 13.4875 71.6051 13.4875C72.7911 13.4875 73.3904 13.7063 73.3904 14.525V15.175H71.655C69.3392 15.175 68.1719 16.0563 68.1719 17.8313C68.1719 19.6063 69.308 20.5188 71.8985 20.5188L71.9047 20.5063ZM71.6301 16.8313H73.3966V17.65C73.3092 18.5688 72.7474 18.6688 71.8673 18.6563C71.0246 18.675 70.4752 18.5875 70.4066 17.7688C70.4066 17.1375 70.8186 16.8313 71.6238 16.8313H71.6301Z" fill="#EFFFEE"/>
<path d="M78.2718 20.3H78.5964C79.3705 20.3 79.5577 20.1125 79.5577 19.35V15.7437C79.5577 14.1937 80.2631 13.6812 81.4117 13.6812C82.373 13.6812 82.8536 14.0062 82.8536 14.9062V19.35C82.8536 20.1125 83.0409 20.3 83.8149 20.3H84.1395C84.9135 20.3 85.1008 20.1125 85.1008 19.35V14.5187C85.1008 13.4812 84.8074 12.7312 84.2456 12.275C83.6776 11.8125 82.9909 11.5937 82.1857 11.5937C81.0371 11.5937 80.157 11.9187 79.5577 12.5625V9.34374C79.5577 8.58124 79.3705 8.39374 78.5964 8.39374H78.2718C77.4978 8.39374 77.3105 8.58124 77.3105 9.34374V19.35C77.3105 20.1125 77.4978 20.3 78.2718 20.3Z" fill="#EFFFEE"/>
<path d="M87.7537 20.3H88.0783C88.8523 20.3 89.0396 20.1125 89.0396 19.35V15.025C89.0396 14.075 89.3454 13.6812 90.4628 13.6812C91.5801 13.6812 91.886 14.075 91.886 15.025V19.35C91.886 20.1125 92.0733 20.3 92.8473 20.3H93.1032C93.8773 20.3 94.0645 20.1125 94.0645 19.35V15.025C94.0645 14.075 94.3579 13.6812 95.5252 13.6812C96.6925 13.6812 96.9172 14.075 96.9172 15.025V19.35C96.9172 20.1125 97.1045 20.3 97.8785 20.3H98.2031C98.9771 20.3 99.1644 20.1125 99.1644 19.35V15.025C99.1644 12.7125 98.0158 11.5875 95.5252 11.5875C94.3766 11.5875 93.5339 11.9437 93.0034 12.675C92.504 11.9437 91.6488 11.5875 90.4628 11.5875C88.0595 11.5875 86.7861 12.7937 86.7861 15.025V19.35C86.7861 20.1125 86.9734 20.3 87.7474 20.3H87.7537Z" fill="#EFFFEE"/>
<path d="M113.422 9.24373H113.184C112.379 9.24373 112.186 9.46248 112.186 10.2312V18.125C112.186 18.5187 112.136 18.6 111.93 18.6C111.774 18.6 111.674 18.4812 111.624 18.2437L109.839 11.1125C109.445 9.53123 108.859 9.03748 107.435 9.03748C105.737 9.03748 105.051 9.69998 105.051 11.6562V19.3125C105.051 20.0812 105.238 20.3 106.05 20.3H106.287C107.092 20.3 107.285 20.0812 107.285 19.3125V11.45C107.285 11.025 107.323 10.9375 107.529 10.9375C107.735 10.9375 107.785 11.025 107.872 11.4125L109.62 18.3562C110.032 19.975 110.631 20.5 112.129 20.5C113.759 20.5 114.433 19.8375 114.433 17.8812V10.225C114.433 9.45623 114.246 9.23748 113.434 9.23748L113.422 9.24373Z" fill="#EFFFEE"/>
<path d="M123.471 17.7688V14.5188C123.471 12.4063 122.01 11.5938 119.314 11.5938C118.814 11.5938 118.353 11.625 117.922 11.6813C117.185 11.8 116.992 11.9875 116.992 12.7188V12.7875C116.992 13.5375 117.198 13.7063 117.953 13.5875C118.465 13.5188 118.964 13.4875 119.445 13.4875C120.631 13.4875 121.23 13.7063 121.23 14.525V15.175H119.495C117.179 15.175 116.012 16.0563 116.012 17.8313C116.012 19.6063 117.148 20.5188 119.738 20.5188C122.329 20.5188 123.465 19.6188 123.465 17.7813L123.471 17.7688ZM118.253 17.7688C118.253 17.1375 118.665 16.8313 119.47 16.8313H121.236V17.65C121.149 18.5688 120.587 18.6688 119.707 18.6563C118.864 18.675 118.315 18.5875 118.246 17.7688H118.253Z" fill="#EFFFEE"/>
<path d="M126.112 20.3H126.418C127.192 20.3 127.379 20.1125 127.379 19.35V9.34374C127.379 8.58124 127.192 8.39374 126.418 8.39374H126.112C125.338 8.39374 125.15 8.58124 125.15 9.34374V19.35C125.15 20.1125 125.338 20.3 126.112 20.3Z" fill="#EFFFEE"/>
<path d="M130.369 19.5562C130.85 20.15 131.162 20.3062 131.93 20.3062H132.791C133.565 20.3062 133.634 20.1562 133.153 19.5562L130.525 16.3562C130.319 16.1187 130.219 15.9312 130.219 15.8125C130.219 15.675 130.319 15.4875 130.544 15.25L132.791 12.5312C133.272 11.9375 133.222 11.8 132.448 11.8H131.586C130.812 11.8 130.506 11.9375 130.026 12.5312L128.634 14.2312C128.134 14.8437 127.966 15.1812 127.966 15.7437C127.966 16.3062 128.191 16.8687 128.634 17.4125L130.369 19.5562Z" fill="#EFFFEE"/>
<path d="M135.731 20.3H136.055C136.829 20.3 137.017 20.1125 137.017 19.35V15.7437C137.017 14.1937 137.722 13.6812 138.871 13.6812C139.832 13.6812 140.313 14.0062 140.313 14.9062V19.35C140.313 20.1125 140.5 20.3 141.274 20.3H141.598C142.373 20.3 142.56 20.1125 142.56 19.35V14.5187C142.56 13.4812 142.266 12.7312 141.705 12.275C141.137 11.8125 140.45 11.5937 139.645 11.5937C138.496 11.5937 137.616 11.9187 137.017 12.5625V9.34374C137.017 8.58124 136.829 8.39374 136.055 8.39374H135.731C134.957 8.39374 134.77 8.58124 134.77 9.34374V19.35C134.77 20.1125 134.957 20.3 135.731 20.3Z" fill="#EFFFEE"/>
<path d="M148.558 20.5062C149.401 20.5062 150.087 20.4375 150.649 20.2875C151.405 20.1 151.561 19.9312 151.561 19.1812V18.9937C151.561 18.1937 151.392 18.025 150.649 18.175C149.894 18.325 149.207 18.4125 148.571 18.4125C146.991 18.4125 146.323 18.0062 146.323 17.1187V16.8625H150.687C151.492 16.8625 151.717 16.6937 151.804 15.925C151.823 15.7187 151.835 15.5 151.835 15.2625C151.835 12.8125 150.581 11.5875 148.077 11.5875C145.418 11.5875 144.076 12.8625 144.076 15.4125V16.775C144.076 19.3812 145.481 20.5 148.558 20.5V20.5062ZM146.323 14.8062C146.323 13.9375 146.891 13.5125 148.009 13.5125C149.126 13.5125 149.707 13.9375 149.707 14.8062V15.0625H146.323V14.8062Z" fill="#EFFFEE"/>
<path d="M157.66 20.5062C158.502 20.5062 159.189 20.4375 159.751 20.2875C160.506 20.1 160.662 19.9312 160.662 19.1812V18.9937C160.662 18.1937 160.494 18.025 159.751 18.175C158.995 18.325 158.309 18.4125 157.672 18.4125C156.093 18.4125 155.425 18.0062 155.425 17.1187V16.8625H159.788C160.593 16.8625 160.818 16.6937 160.906 15.925C160.924 15.7187 160.937 15.5 160.937 15.2625C160.937 12.8125 159.682 11.5875 157.179 11.5875C154.52 11.5875 153.178 12.8625 153.178 15.4125V16.775C153.178 19.3812 154.582 20.5 157.66 20.5V20.5062ZM155.425 14.8062C155.425 13.9375 155.993 13.5125 157.11 13.5125C158.228 13.5125 158.808 13.9375 158.808 14.8062V15.0625H155.425V14.8062Z" fill="#EFFFEE"/>
<path d="M165.007 20.475C165.232 20.475 165.4 20.4562 165.525 20.4437C165.987 20.3562 166.106 20.1687 166.106 19.4875V19.1625C166.106 18.5 165.987 18.3812 165.525 18.3812H165.438C164.907 18.3812 164.683 18.1062 164.683 17.2375V9.34374C164.683 8.58124 164.495 8.39374 163.721 8.39374H163.415C162.641 8.39374 162.454 8.58124 162.454 9.34374V17.7312C162.454 19.5875 163.447 20.4687 165.013 20.4687L165.007 20.475Z" fill="#EFFFEE"/>
<path d="M92.528 39.3937H90.4307V41.15H92.528V39.3937Z" fill="#EFFFEE"/>
<path d="M89.4753 39.3937H87.3779V41.15H89.4753V39.3937Z" fill="#EFFFEE"/>
<path d="M101.048 28.4125H98.9385V30.1812H101.048V28.4125Z" fill="#EFFFEE"/>
<path d="M109.788 35.575C109.788 36.1687 109.451 36.4937 108.895 36.4937H104.875C104.875 33.575 102.484 31.3312 99.6816 31.3312C97.8339 31.3312 95.7989 32.3687 95.749 34.7187H97.709C97.8027 33.5875 98.6516 33.1625 99.6816 33.1625C101.61 33.1625 102.796 34.6 102.778 36.4937H93.9949C93.0711 36.4937 92.5155 35.9125 92.5155 35.0125V32.2H90.4369V35.2687C90.4369 36.1375 90.0061 36.4875 89.2009 36.4875H70.7864C69.8626 36.4875 69.307 35.9062 69.307 35.0062V28.625H67.2409V35.9562C67.2409 37.85 65.8364 39.0875 64.2508 39.0875C62.759 39.0875 61.3233 37.65 61.3233 36.0062C61.3233 34.6 61.7852 33.6687 61.7852 33.6687H59.6254C59.3632 34.475 59.3008 34.9937 59.3008 36.0062C59.3008 38.9062 61.5355 41.15 64.2446 41.15C66.4793 41.15 68.3457 39.9 69.0199 37.8375C69.4381 38.2187 70.0374 38.525 70.8988 38.525H89.7814C90.7365 38.525 91.5355 38.1 91.91 37.4562C92.3095 38.0062 92.9899 38.525 94.1135 38.525H109.076C111.667 38.525 111.866 36.325 111.866 35.4562V31.7312H109.788V35.5812V35.575Z" fill="#EFFFEE"/>
<path d="M111.442 28.6312H109.345V30.4H111.442V28.6312Z" fill="#EFFFEE"/>
<path d="M164.045 31.7437V35.8812C164.026 36.6125 163.814 37.375 162.796 37.375C162.147 37.375 161.579 36.7937 161.548 35.7875V32.2H159.482V35.8812C159.463 36.6125 159.251 37.375 158.233 37.375C157.584 37.375 157.016 36.7937 156.985 35.7875V32.2H154.906V35.575C154.906 36.1687 154.569 36.4937 154.014 36.4937H149.263C149.513 36.25 149.619 35.9562 149.619 35.0875V33.0437C149.619 31.6562 148.514 30.55 146.997 30.5437C145.48 30.55 144.426 31.5875 144.426 33.0437V36.4937H129.981C129.151 36.4937 128.932 35.7 128.932 34.8437C128.932 33.0875 127.672 31.2125 125.281 31.2125C123.614 31.2125 122.49 32.1437 121.966 33.2875C121.798 33.55 121.548 33.6875 121.211 33.6875H119.544C116.954 33.6875 116.754 35.8687 116.754 36.7437V41.1562H118.833V36.6375C118.833 36.0562 119.17 35.7187 119.725 35.7187H120.942C121.267 35.7187 121.479 35.675 121.698 35.5687C121.991 37.1437 123.221 38.7 125.275 38.7C126.417 38.7 127.278 38.2125 127.909 37.5375C128.371 38.0875 129.095 38.5312 130.081 38.5312H144.413C144.675 39.8 145.587 41.3125 147.759 41.3125C149.313 41.3125 150.518 40.5 150.518 39.3562C150.518 39.0937 150.456 38.8375 150.193 38.5312H154.188C155.481 38.5312 156.18 37.9812 156.548 37.325C157.197 38.5937 158.071 38.8375 159.12 38.8375C159.906 38.8375 161.049 38.2875 161.342 37.5375C161.991 38.425 162.634 38.8375 163.683 38.8375C165.53 38.8375 166.105 37.4 166.105 35.8937V31.7562H164.039L164.045 31.7437ZM125.281 36.9375C124.157 36.9375 123.783 36.0687 123.783 34.8437C123.783 33.7625 124.151 32.875 125.281 32.875C126.411 32.875 126.791 33.7625 126.791 34.8437C126.791 36.0625 126.423 36.9375 125.281 36.9375ZM146.429 33.1375C146.429 32.875 146.648 32.575 146.997 32.575C147.384 32.575 147.615 32.8812 147.615 33.1375V35.5625C147.615 36.0812 147.079 36.6437 146.66 36.6437H146.429V33.1312V33.1375ZM147.865 39.7625C146.691 39.7625 146.386 38.5687 146.354 38.4187H147.678C148.152 38.45 148.589 38.6187 148.589 38.9687C148.589 39.2562 148.233 39.7625 147.865 39.7625Z" fill="#EFFFEE"/>
</svg>
